<?xml version="1.0" standalone="no"?>
<!DOCTYPE svg PUBLIC "-//W3C//DTD SVG 1.0//EN" "http://www.w3.org/TR/2001/REC-SVG-20010904/DTD/svg10.dtd">
<svg xmlns="http://www.w3.org/2000/svg" xmlns:xlink="http://www.w3.org/1999/xlink" id="body_1" width="96" height="45">

<g transform="matrix(0.08 0 0 0.08 -0 0.44)">
	<g transform="matrix(0.1 0 -0 -0.1 0 557)">
        <path d="M8883 5158C 8722 4469 8686 4308 8669 4225C 8660 4176 8622 4011 8586 3859C 8550 3707 8520 3578 8520 3573C 8520 3556 8551 3548 8566 3561C 8574 3567 8580 3579 8580 3587C 8580 3600 8634 3754 8792 4195C 8826 4289 8860 4385 8868 4410C 8899 4511 8985 4740 8991 4740C 9001 4740 9084 4555 9121 4450C 9132 4420 9167 4332 9200 4255C 9254 4126 9284 4053 9383 3805C 9403 3756 9449 3639 9487 3546C 9561 3359 9591 3316 9657 3304C 9678 3300 9771 3305 9865 3314C 10461 3375 10984 3421 11134 3427L11134 3427L11263 3432L11224 3398C 11202 3379 11167 3351 11145 3335C 11123 3319 11083 3287 11055 3264C 11028 3242 10986 3210 10964 3194C 10941 3178 10856 3113 10775 3050C 10607 2919 10550 2875 10268 2661C 10037 2486 9983 2438 9975 2400C 9968 2367 10017 2236 10092 2086C 10120 2030 10153 1957 10166 1922C 10179 1888 10211 1819 10236 1769C 10261 1718 10296 1641 10315 1596C 10333 1552 10371 1468 10398 1409C 10426 1351 10457 1282 10468 1254C 10479 1227 10517 1142 10553 1065C 10648 860 10648 869 10549 923C 10503 948 10424 992 10373 1022C 10322 1051 10222 1109 10150 1150C 10078 1191 9968 1254 9907 1290C 9845 1326 9757 1377 9710 1403C 9663 1430 9598 1467 9565 1487C 9245 1678 9202 1700 9147 1700C 9092 1700 9056 1676 8893 1530C 8778 1426 8688 1347 8565 1240C 8441 1133 8104 835 8055 791C 8027 766 7971 716 7931 680C 7890 644 7829 590 7795 560C 7644 425 7525 323 7487 297C 7436 263 7434 258 7459 236C 7480 217 7479 217 7650 333C 7675 350 7792 429 7910 508C 8346 802 8708 1046 8888 1170C 9085 1305 9092 1309 9127 1316C 9171 1324 9199 1310 9560 1100C 9623 1063 9738 998 9815 955C 9892 912 10009 846 10075 808C 10298 679 10385 630 10453 592C 10491 572 10565 530 10618 499C 10760 417 10993 286 11005 281C 11010 279 11063 249 11122 214C 11239 145 11364 80 11380 80C 11385 80 11390 85 11390 90C 11390 101 11315 266 11199 511C 11161 592 11130 661 11130 666C 11130 671 11099 740 11061 820C 10939 1075 10830 1309 10830 1317C 10830 1320 10796 1396 10754 1484C 10712 1573 10647 1710 10610 1790C 10573 1870 10506 2012 10463 2105C 10367 2309 10345 2369 10353 2402C 10361 2433 10398 2471 10470 2521C 10500 2542 10593 2612 10675 2675C 10758 2739 10857 2816 10895 2845C 10934 2875 11012 2935 11070 2980C 11128 3025 11200 3080 11230 3103C 11260 3126 11318 3172 11359 3205C 11400 3238 11464 3288 11501 3315C 11679 3447 11860 3594 11860 3607C 11860 3638 11809 3642 11480 3635C 11301 3632 11040 3625 10900 3620C 10160 3594 9844 3588 9817 3599C 9794 3608 9777 3634 9728 3737C 9695 3807 9653 3901 9635 3945C 9603 4024 9534 4179 9400 4475C 9363 4558 9329 4635 9325 4648C 9321 4661 9293 4724 9263 4788C 9233 4852 9197 4932 9185 4965C 9172 4998 9138 5075 9110 5135C 9081 5196 9047 5274 9033 5310C 9002 5392 8984 5420 8962 5420C 8947 5420 8935 5379 8883 5158z" stroke="none" fill="#FF0000" fill-rule="nonzero" />
        <path d="M141 4053L120 4035L120 2671C 119 1177 115 1273 176 1250C 190 1244 335 1240 501 1240L501 1240L800 1240L798 2631L795 4022L767 4046L739 4070L451 4070C 191 4070 160 4068 141 4053z" stroke="none" fill="#FF0000" fill-rule="nonzero" />
        <path d="M1292 4040C 1264 4013 1261 4003 1255 3913C 1246 3804 1256 3617 1271 3589C 1276 3579 1289 3566 1299 3560C 1322 3548 1849 3534 1904 3544L1904 3544L1942 3551L1938 3776L1935 4002L1898 4036L1860 4070L1591 4070L1322 4070L1292 4040z" stroke="none" fill="#FF0000" fill-rule="nonzero" />
        <path d="M2437 4049C 2422 4038 2406 4012 2400 3992C 2392 3966 2390 3552 2392 2612C 2395 1432 2397 1268 2410 1260C 2430 1247 3027 1247 3035 1260C 3038 1265 3044 1308 3047 1355L3047 1355L3053 1440L3104 1397C 3195 1319 3322 1242 3405 1214C 3507 1179 3685 1170 3796 1193C 4063 1250 4290 1434 4403 1686C 4508 1920 4534 2038 4534 2295C 4534 2562 4507 2685 4400 2905C 4354 3001 4328 3040 4271 3102C 4144 3239 3996 3319 3823 3345C 3640 3373 3474 3357 3357 3302C 3285 3268 3147 3168 3108 3121L3108 3121L3081 3089L3078 3555L3075 4022L3047 4046L3019 4070L2741 4070C 2475 4070 2462 4069 2437 4049zM3616 2797C 3708 2750 3771 2668 3814 2540C 3867 2380 3870 2223 3823 2060C 3777 1899 3702 1792 3600 1742C 3551 1718 3534 1715 3445 1715C 3355 1715 3339 1718 3290 1743C 3155 1812 3104 1902 3070 2135C 3045 2301 3045 2322 3075 2455C 3104 2582 3134 2649 3190 2713C 3269 2802 3342 2831 3475 2827C 3549 2824 3574 2819 3616 2797z" stroke="none" fill="#FF0000" fill-rule="nonzero" />
        <path d="M7298 3344C 7185 3326 7109 3301 6976 3234C 6844 3167 6778 3118 6669 3002C 6542 2867 6450 2682 6413 2490C 6389 2370 6390 2124 6414 2005C 6462 1764 6616 1519 6805 1385C 6883 1329 7054 1257 7200 1217C 7310 1188 7324 1186 7510 1186C 7682 1185 7716 1188 7800 1209C 7917 1238 8099 1310 8180 1358C 8274 1415 8394 1541 8445 1635C 8480 1699 8540 1846 8540 1866C 8540 1868 8403 1870 8235 1870L8235 1870L7930 1870L7849 1795C 7758 1710 7739 1698 7650 1675C 7479 1631 7309 1670 7208 1778C 7135 1856 7105 1926 7086 2063L7086 2063L7081 2100L7805 2100C 8298 2099 8536 2102 8549 2110C 8577 2125 8584 2174 8576 2309C 8550 2743 8355 3071 8020 3244C 7970 3270 7904 3300 7872 3311C 7737 3358 7479 3372 7298 3344zM7655 2856C 7763 2807 7860 2674 7875 2553L7875 2553L7882 2500L7491 2500L7100 2500L7100 2540C 7100 2616 7137 2689 7214 2765C 7311 2861 7387 2892 7510 2887C 7576 2884 7609 2877 7655 2856z" stroke="none" fill="#FF0000" fill-rule="nonzero" />
        <path d="M6040 3333C 5985 3324 5889 3287 5834 3254C 5744 3200 5697 3157 5631 3070L5631 3070L5571 2989L5568 3137L5565 3285L5243 3288L4920 3290L4920 2270L4920 1250L5249 1250L5577 1250L5583 1318C 5587 1355 5590 1595 5590 1851C 5590 2122 5594 2340 5600 2370C 5614 2446 5652 2522 5705 2584C 5800 2694 5916 2730 6172 2730L6172 2730L6340 2730L6340 3029L6340 3327L6294 3334C 6244 3340 6082 3340 6040 3333z" stroke="none" fill="#FF0000" fill-rule="nonzero" />
        <path d="M1355 3303C 1344 3301 1325 3297 1312 3294C 1297 3291 1282 3275 1270 3247C 1251 3207 1250 3170 1250 2310C 1250 1818 1253 1378 1257 1333L1257 1333L1263 1250L1596 1250L1930 1250L1930 2275L1930 3300L1666 3300C 1521 3300 1396 3302 1388 3304C 1381 3306 1366 3306 1355 3303z" stroke="none" fill="#FF0000" fill-rule="nonzero" />
        <path d="M5705 1119C 5081 1087 4735 1057 4270 996C 4168 983 4013 962 3925 950C 3691 920 3541 896 3200 835C 2750 754 2742 753 2523 705C 2412 680 2265 649 2197 635C 2043 605 1594 497 1330 428C 666 254 618 240 622 220C 627 196 717 202 875 238C 1207 314 1616 401 1726 420C 1791 431 1944 460 2065 484C 2186 508 2346 537 2420 549C 2494 561 2665 588 2800 610C 3118 661 3505 716 3600 724C 3641 728 3745 740 3830 750C 4500 834 4968 874 5790 920C 6057 935 6790 932 7042 915C 7360 894 7607 873 7757 853C 7830 844 7893 839 7896 843C 7899 846 7905 869 7907 894C 7914 955 7894 984 7833 1004C 7712 1043 7249 1090 6705 1120C 6488 1131 5942 1131 5705 1119z" stroke="none" fill="#FF0000" fill-rule="nonzero" />
	</g>
</g>
</svg>